<svg width="620" height="420" viewBox="0 0 620 420" fill="none" xmlns="http://www.w3.org/2000/svg"><defs><filter id="g"><feGaussianBlur stdDeviation="5" result="b"/><feMerge><feMergeNode in="b"/><feMergeNode in="SourceGraphic"/></feMerge></filter><linearGradient id="p" x1="0" y1="0" x2="1" y2="1"><stop stop-color="#263126"/><stop offset="1" stop-color="#080B09"/></linearGradient></defs><rect x="16" y="16" width="588" height="388" rx="18" fill="#080B0A" stroke="#B7FF00" stroke-opacity=".3" stroke-width="2"/><path d="M16 72h588" stroke="#3A453A" stroke-width="2"/><circle cx="43" cy="44" r="5" fill="#B7FF00"/><circle cx="61" cy="44" r="5" fill="#B7FF00"/><circle cx="79" cy="44" r="5" fill="#B7FF00"/><text x="105" y="50" fill="#D3DDD0" font-family="monospace" font-size="13">STORE FRONT</text><rect x="40" y="100" width="340" height="230" rx="11" fill="url(#p)" stroke="#435143"/><rect x="58" y="119" width="108" height="92" rx="8" fill="#161C17" stroke="#59665A"/><path d="M84 172l25-34 27 34" stroke="#B7FF00" stroke-width="4"/><path d="M75 188h74" stroke="#667266" stroke-width="4"/><rect x="182" y="119" width="108" height="92" rx="8" fill="#161C17" stroke="#59665A"/><circle cx="236" cy="158" r="26" stroke="#B7FF00" stroke-width="4"/><path d="M216 178h40" stroke="#667266" stroke-width="4"/><rect x="306" y="119" width="56" height="92" rx="8" fill="#161C17" stroke="#59665A"/><path d="M321 143h26M321 160h26M321 177h18" stroke="#B7FF00" stroke-width="4"/><path d="M58 245h190M58 270h140" stroke="#6A7569" stroke-width="5" stroke-linecap="round"/><rect x="58" y="292" width="106" height="20" rx="10" fill="#B7FF00"/><text x="75" y="306" fill="#070A07" font-family="monospace" font-size="9">SHOP NOW</text><rect x="402" y="100" width="158" height="230" rx="11" fill="url(#p)" stroke="#435143"/><text x="422" y="127" fill="#D3DDD0" font-family="monospace" font-size="12">YOUR CART</text><path d="M422 150h118M422 212h118" stroke="#354035"/><circle cx="441" cy="181" r="20" fill="#1A2319" stroke="#B7FF00"/><path d="M431 176h20l-3 13h-14zM435 172c0-8 10-8 10 0" stroke="#B7FF00" stroke-width="2"/><text x="470" y="178" fill="#BBC7B8" font-family="monospace" font-size="10">ITEM × 1</text><text x="470" y="194" fill="#B7FF00" font-family="monospace" font-size="13">$249</text><text x="422" y="239" fill="#8D998C" font-family="monospace" font-size="10">TOTAL</text><text x="505" y="239" fill="#B7FF00" font-family="monospace" font-size="14">$249</text><rect x="422" y="263" width="118" height="38" rx="19" fill="#B7FF00"/><text x="450" y="287" fill="#070A07" font-family="monospace" font-size="10">CHECKOUT</text><circle cx="579" cy="350" r="6" fill="#B7FF00"/><text x="492" y="370" fill="#B7FF00" font-family="monospace" font-size="11">+32% CONVERSION</text></svg>