<svg width="700" height="420" viewBox="0 0 700 420" fill="none" xmlns="http://www.w3.org/2000/svg">
<defs>
  <radialGradient id="bg" cx="50%" cy="50%" r="65%"><stop stop-color="#1D2A18"/><stop offset="1" stop-color="#101720" stop-opacity="0"/></radialGradient>
  <linearGradient id="glass" x1="0" y1="0" x2="1" y2="1"><stop stop-color="#B7FF00" stop-opacity=".2"/><stop offset="1" stop-color="#101A13" stop-opacity=".8"/></linearGradient>
  <filter id="glow"><feGaussianBlur stdDeviation="10" result="b"/><feMerge><feMergeNode in="b"/><feMergeNode in="SourceGraphic"/></feMerge></filter>
</defs>
<ellipse cx="395" cy="215" rx="270" ry="190" fill="url(#bg)"/>
<ellipse cx="395" cy="215" rx="235" ry="135" stroke="#B7FF00" stroke-opacity=".2" stroke-dasharray="3 9" transform="rotate(-16 395 215)"/>
<g filter="url(#glow)">
  <rect x="269" y="72" width="190" height="235" rx="25" fill="url(#glass)" stroke="#B7FF00" stroke-opacity=".55" stroke-width="2" transform="rotate(7 269 72)"/>
  <path d="M373 128c-32 0-57 25-57 56 0 21 11 35 25 46v20h64v-20c14-11 25-25 25-46 0-31-25-56-57-56Z" stroke="#B7FF00" stroke-width="7" stroke-linecap="round"/>
  <path d="M350 253h46M351 267h44" stroke="#B7FF00" stroke-width="7" stroke-linecap="round"/>
  <path d="M354 224c8-10 14-10 20 0 7-10 14-10 21 0" stroke="#B7FF00" stroke-width="4" stroke-linecap="round"/>
</g>
<g font-family="monospace" font-size="13" fill="#E8EDE5">
  <rect x="90" y="105" width="125" height="54" rx="10" fill="#17201E" stroke="#78877A" stroke-opacity=".35"/><circle cx="108" cy="132" r="4" fill="#B7FF00"/><text x="123" y="137">PLAN</text>
  <rect x="90" y="221" width="145" height="54" rx="10" fill="#17201E" stroke="#78877A" stroke-opacity=".35"/><circle cx="108" cy="248" r="4" fill="#B7FF00"/><text x="123" y="253">DEVELOP</text>
  <rect x="490" y="125" width="135" height="54" rx="10" fill="#17201E" stroke="#78877A" stroke-opacity=".35"/><circle cx="508" cy="152" r="4" fill="#B7FF00"/><text x="523" y="157">DESIGN</text>
  <rect x="490" y="240" width="135" height="54" rx="10" fill="#17201E" stroke="#78877A" stroke-opacity=".35"/><circle cx="508" cy="267" r="4" fill="#B7FF00"/><text x="523" y="272">LAUNCH</text>
</g>
</svg>