<svg width="620" height="420" viewBox="0 0 620 420" fill="none" xmlns="http://www.w3.org/2000/svg"><defs><filter id="g"><feGaussianBlur stdDeviation="5" result="b"/><feMerge><feMergeNode in="b"/><feMergeNode in="SourceGraphic"/></feMerge></filter><linearGradient id="panel" x1="0" y1="0" x2="1" y2="1"><stop stop-color="#202821"/><stop offset="1" stop-color="#080B09"/></linearGradient></defs><rect x="16" y="16" width="588" height="388" rx="18" fill="#080B0A" stroke="#B7FF00" stroke-opacity=".28" stroke-width="2"/><path d="M16 74h588" stroke="#394238" stroke-width="2"/><circle cx="43" cy="45" r="5" fill="#B7FF00"/><circle cx="61" cy="45" r="5" fill="#B7FF00"/><circle cx="79" cy="45" r="5" fill="#B7FF00"/><text x="105" y="51" fill="#C7D0C7" font-family="monospace" font-size="13">PRODUCT ANALYTICS</text><rect x="40" y="102" width="160" height="78" rx="10" fill="url(#panel)" stroke="#3A4639"/><rect x="220" y="102" width="160" height="78" rx="10" fill="url(#panel)" stroke="#3A4639"/><rect x="400" y="102" width="160" height="78" rx="10" fill="url(#panel)" stroke="#3A4639"/><g font-family="monospace"><text x="58" y="128" fill="#899789" font-size="11">REVENUE</text><text x="58" y="160" fill="#B7FF00" font-size="25">$84.2K</text><text x="238" y="128" fill="#899789" font-size="11">ACTIVE USERS</text><text x="238" y="160" fill="#B7FF00" font-size="25">12,480</text><text x="418" y="128" fill="#899789" font-size="11">GROWTH</text><text x="418" y="160" fill="#B7FF00" font-size="25">+28.4%</text></g><rect x="40" y="202" width="340" height="160" rx="10" fill="url(#panel)" stroke="#3A4639"/><text x="60" y="230" fill="#D5DDD3" font-family="monospace" font-size="12">MONTHLY PERFORMANCE</text><path d="M62 330h296M62 295h296M62 260h296" stroke="#283229"/><path d="M66 320C94 305 105 316 126 286s35 12 55-16 37 28 60-2 40 4 57-29 32-10 58-35" stroke="#B7FF00" stroke-width="4" stroke-linecap="round" filter="url(#g)"/><path d="M66 320C94 305 105 316 126 286s35 12 55-16 37 28 60-2 40 4 57-29 32-10 58-35V350H66Z" fill="#B7FF00" fill-opacity=".08"/><rect x="400" y="202" width="160" height="160" rx="10" fill="url(#panel)" stroke="#3A4639"/><text x="420" y="230" fill="#D5DDD3" font-family="monospace" font-size="12">SYSTEM STATUS</text><circle cx="428" cy="264" r="5" fill="#B7FF00"/><text x="443" y="268" fill="#A7B0A5" font-family="monospace" font-size="11">API ONLINE</text><circle cx="428" cy="295" r="5" fill="#B7FF00"/><text x="443" y="299" fill="#A7B0A5" font-family="monospace" font-size="11">DATABASE OK</text><circle cx="428" cy="326" r="5" fill="#B7FF00"/><text x="443" y="330" fill="#A7B0A5" font-family="monospace" font-size="11">99.98% UPTIME</text></svg>